<svg id="Free_Clock_icon_part_2無料の時計のアイコン_2" data-name="Free Clock icon part 2無料の時計のアイコン 2" xmlns="http://www.w3.org/2000/svg" width="18.369" height="18.369" viewBox="0 0 18.369 18.369">
  <path id="パス_29" data-name="パス 29" d="M9.184,0a9.184,9.184,0,1,0,9.184,9.184A9.195,9.195,0,0,0,9.184,0Zm0,16.182a7,7,0,1,1,7-7A7.005,7.005,0,0,1,9.184,16.182Z" fill="#639cbf"/>
  <path id="パス_30" data-name="パス 30" d="M158.129,115.758a.832.832,0,0,0-.832.832v3.767l-2.657,2.657a.832.832,0,0,0,1.177,1.177l3.144-3.144V116.59A.832.832,0,0,0,158.129,115.758Z" transform="translate(-148.857 -111.605)" fill="#639cbf"/>
</svg>
